<svg xmlns="http://www.w3.org/2000/svg" viewBox="0 0 920 720" role="img" aria-labelledby="title desc">
  <title id="title">Nodes Nodes Nodes hero collage</title>
  <desc id="desc">Playful placeholder collage showing notes, nodes, and outputs.</desc>
  <rect width="920" height="720" rx="36" fill="#fff8f1"/>
  <circle cx="780" cy="124" r="86" fill="#ffd7ca"/>
  <circle cx="146" cy="598" r="94" fill="#cfe4ff"/>
  <rect x="58" y="74" width="342" height="208" rx="28" fill="#fffdf8" stroke="#ddc7b4" stroke-width="2"/>
  <rect x="442" y="88" width="420" height="178" rx="28" fill="#fff2dc" stroke="#ddc7b4" stroke-width="2"/>
  <rect x="106" y="350" width="220" height="138" rx="28" fill="#ecf7e9" stroke="#ddc7b4" stroke-width="2"/>
  <rect x="390" y="326" width="212" height="154" rx="28" fill="#eaf4ff" stroke="#ddc7b4" stroke-width="2"/>
  <rect x="644" y="330" width="176" height="220" rx="28" fill="#fff5c6" stroke="#ddc7b4" stroke-width="2"/>
  <rect x="208" y="538" width="362" height="104" rx="28" fill="#fffdf8" stroke="#ddc7b4" stroke-width="2"/>
  <text x="90" y="124" fill="#6e6055" font-family="'IBM Plex Mono', monospace" font-size="22" letter-spacing="3">PROJECT NOTES</text>
  <text x="90" y="172" fill="#2c2018" font-family="'Syne', sans-serif" font-size="34" font-weight="700">ideas, scraps,</text>
  <text x="90" y="214" fill="#2c2018" font-family="'Syne', sans-serif" font-size="34" font-weight="700">half-finished prompts</text>
  <text x="474" y="140" fill="#6e6055" font-family="'IBM Plex Mono', monospace" font-size="22" letter-spacing="3">CANVAS</text>
  <circle cx="516" cy="192" r="16" fill="#ff7a59"/>
  <circle cx="642" cy="172" r="16" fill="#9ec9ff"/>
  <circle cx="742" cy="214" r="16" fill="#ffe186"/>
  <circle cx="818" cy="166" r="16" fill="#b8ddb1"/>
  <path d="M532 192h92M658 172l68 36M758 214l44-42" stroke="#2c2018" stroke-width="5" stroke-linecap="round" fill="none"/>
  <text x="130" y="406" fill="#6e6055" font-family="'IBM Plex Mono', monospace" font-size="18" letter-spacing="2">RUN</text>
  <rect x="136" y="426" width="150" height="16" rx="8" fill="#ff7a59"/>
  <rect x="136" y="452" width="112" height="12" rx="6" fill="#2c2018" opacity=".2"/>
  <text x="420" y="382" fill="#6e6055" font-family="'IBM Plex Mono', monospace" font-size="18" letter-spacing="2">QUEUE</text>
  <rect x="424" y="404" width="140" height="22" rx="11" fill="#9ec9ff"/>
  <rect x="424" y="438" width="122" height="14" rx="7" fill="#2c2018" opacity=".14"/>
  <text x="680" y="382" fill="#6e6055" font-family="'IBM Plex Mono', monospace" font-size="18" letter-spacing="2">COMPARE</text>
  <rect x="678" y="410" width="52" height="78" rx="14" fill="#ffcfb3"/>
  <rect x="740" y="410" width="52" height="78" rx="14" fill="#fffdf8"/>
  <text x="238" y="586" fill="#6e6055" font-family="'IBM Plex Mono', monospace" font-size="18" letter-spacing="2">KEEP WHAT WORKS</text>
  <path d="M92 250c26 14 56 22 90 22 43 0 82-13 118-37" stroke="#ff7a59" stroke-width="4" stroke-linecap="round" fill="none"/>
  <path d="M274 466c34 24 68 36 102 36 44 0 92-17 142-52" stroke="#2c2018" stroke-width="4" stroke-linecap="round" stroke-dasharray="10 10" fill="none"/>
  <path d="M564 208c18 26 34 50 50 72 18 24 42 42 72 54" stroke="#2c2018" stroke-width="4" stroke-linecap="round" fill="none"/>
</svg>
