<svg xmlns="http://www.w3.org/2000/svg" viewBox="0 0 920 720" role="img" aria-labelledby="title desc">
  <title id="title">Nodes Nodes Nodes hero collage</title>
  <desc id="desc">Warm stone frame with a dark workflow canvas, local notes, queue state, and compare panels.</desc>
  <rect width="920" height="720" rx="36" fill="#fbf7ef"/>
  <circle cx="770" cy="112" r="94" fill="#ffdbc8" opacity=".75"/>
  <circle cx="128" cy="596" r="88" fill="#dff7ff" opacity=".9"/>
  <rect x="60" y="64" width="800" height="592" rx="34" fill="#fffef9" stroke="rgba(23,32,39,0.14)" stroke-width="2"/>
  <rect x="96" y="116" width="728" height="464" rx="28" fill="#101417"/>
  <g opacity=".15" stroke="#8ce7ff" stroke-width="1">
    <path d="M132 148h656"/>
    <path d="M132 196h656"/>
    <path d="M132 244h656"/>
    <path d="M132 292h656"/>
    <path d="M132 340h656"/>
    <path d="M132 388h656"/>
    <path d="M132 436h656"/>
    <path d="M132 484h656"/>
    <path d="M132 532h656"/>
  </g>
  <rect x="128" y="146" width="264" height="138" rx="22" fill="#fffef9" stroke="#ff9d7d" stroke-width="3"/>
  <rect x="448" y="138" width="292" height="116" rx="22" fill="#f4ecdd" stroke="#d8ff3e" stroke-width="3"/>
  <rect x="156" y="350" width="184" height="116" rx="20" fill="#fffef9" stroke="#8ce7ff" stroke-width="3"/>
  <rect x="394" y="324" width="196" height="136" rx="20" fill="#fffef9" stroke="#ff9d7d" stroke-width="3"/>
  <rect x="630" y="314" width="148" height="182" rx="20" fill="#f4ecdd" stroke="#d8ff3e" stroke-width="3"/>
  <rect x="250" y="520" width="316" height="84" rx="20" fill="#fffef9" stroke="#8ce7ff" stroke-width="2"/>
  <text x="154" y="184" fill="#4d5d69" font-family="Menlo, Consolas, monospace" font-size="18" letter-spacing="3">LOCAL NOTES</text>
  <text x="154" y="224" fill="#101417" font-family="Arial, Helvetica, sans-serif" font-size="28" font-weight="700">ideas, scraps, prompts,</text>
  <text x="154" y="258" fill="#101417" font-family="Arial, Helvetica, sans-serif" font-size="28" font-weight="700">and files in one workspace</text>
  <text x="476" y="178" fill="#4d5d69" font-family="Menlo, Consolas, monospace" font-size="18" letter-spacing="3">CANVAS</text>
  <circle cx="516" cy="204" r="14" fill="#ff9d7d"/>
  <circle cx="610" cy="178" r="14" fill="#8ce7ff"/>
  <circle cx="686" cy="220" r="14" fill="#ffd26c"/>
  <circle cx="744" cy="174" r="14" fill="#5ec78d"/>
  <path d="M530 204h60M624 184l48 28M700 214l30-28" stroke="#101417" stroke-width="4" stroke-linecap="round" fill="none"/>
  <text x="182" y="386" fill="#4d5d69" font-family="Menlo, Consolas, monospace" font-size="16" letter-spacing="2">RUN</text>
  <rect x="188" y="404" width="114" height="14" rx="7" fill="#ff9d7d"/>
  <rect x="188" y="430" width="90" height="11" rx="5.5" fill="#24303b" opacity=".22"/>
  <text x="420" y="362" fill="#4d5d69" font-family="Menlo, Consolas, monospace" font-size="16" letter-spacing="2">QUEUE + DEBUG</text>
  <rect x="426" y="382" width="126" height="18" rx="9" fill="#8ce7ff"/>
  <rect x="426" y="410" width="104" height="10" rx="5" fill="#24303b" opacity=".18"/>
  <rect x="426" y="430" width="86" height="10" rx="5" fill="#d8ff3e" opacity=".72"/>
  <text x="658" y="366" fill="#4d5d69" font-family="Menlo, Consolas, monospace" font-size="16" letter-spacing="2">COMPARE</text>
  <rect x="658" y="388" width="40" height="76" rx="14" fill="#ff9d7d" opacity=".62"/>
  <rect x="710" y="388" width="40" height="76" rx="14" fill="#fffef9"/>
  <text x="286" y="570" fill="#4d5d69" font-family="Menlo, Consolas, monospace" font-size="16" letter-spacing="2">KEEP THE GOOD OUTPUTS</text>
  <path d="M392 208c56 10 92 30 110 58 16 24 46 42 92 56" stroke="#ff4fc6" stroke-width="4" stroke-linecap="round" fill="none"/>
  <path d="M306 436c40 26 74 40 100 40 42 0 92-20 148-60" stroke="#8ce7ff" stroke-width="4" stroke-linecap="round" stroke-dasharray="9 8" fill="none"/>
  <path d="M552 232c20 36 44 72 72 106 26 30 70 54 132 74" stroke="#d8ff3e" stroke-width="4" stroke-linecap="round" fill="none"/>
</svg>
