<svg xmlns="http://www.w3.org/2000/svg" viewBox="0 0 640 400" role="img" aria-labelledby="title">
  <title>Assets placeholder</title>
  <rect width="640" height="400" rx="30" fill="#eef6ed"/>
  <rect x="24" y="24" width="592" height="352" rx="26" fill="#fffef9" stroke="rgba(23,32,39,0.14)" stroke-width="2"/>
  <rect x="44" y="44" width="552" height="40" rx="16" fill="#fbf7ef"/>
  <text x="64" y="68" fill="#4d5d69" font-family="Menlo, Consolas, monospace" font-size="16" letter-spacing="2">ASSET REVIEW</text>
  <rect x="54" y="104" width="248" height="112" rx="20" fill="#fff3ed" stroke="#ff9d7d" stroke-width="2"/>
  <rect x="338" y="104" width="248" height="112" rx="20" fill="#eefbff" stroke="#8ce7ff" stroke-width="2"/>
  <rect x="54" y="236" width="248" height="112" rx="20" fill="#f8f5de" stroke="#d8ff3e" stroke-width="2"/>
  <rect x="338" y="236" width="248" height="112" rx="20" fill="#101417"/>
  <circle cx="178" cy="160" r="28" fill="#fffef9" opacity=".7"/>
  <circle cx="458" cy="292" r="36" fill="#ff9d7d" opacity=".3"/>
  <rect x="364" y="264" width="82" height="14" rx="7" fill="#8ce7ff"/>
  <rect x="454" y="264" width="64" height="14" rx="7" fill="#d8ff3e"/>
  <rect x="364" y="292" width="116" height="10" rx="5" fill="#fffef9" opacity=".35"/>
  <rect x="364" y="314" width="88" height="10" rx="5" fill="#fffef9" opacity=".25"/>
</svg>
