<svg xmlns="http://www.w3.org/2000/svg" viewBox="0 0 640 400" role="img" aria-labelledby="title">
  <title>Canvas placeholder</title>
  <rect width="640" height="400" rx="30" fill="#f4ecdd"/>
  <rect x="24" y="24" width="592" height="352" rx="26" fill="#101417"/>
  <g opacity=".12" stroke="#8ce7ff" stroke-width="1">
    <path d="M54 72h532"/>
    <path d="M54 120h532"/>
    <path d="M54 168h532"/>
    <path d="M54 216h532"/>
    <path d="M54 264h532"/>
    <path d="M54 312h532"/>
  </g>
  <path d="M176 112h110M286 112l88 54M200 240l82-96M374 166l112 84" stroke="#fffef9" stroke-width="5" stroke-linecap="round" fill="none"/>
  <path d="M118 116c34 10 48 14 58 24" stroke="#ff4fc6" stroke-width="4" stroke-linecap="round" fill="none"/>
  <path d="M288 114c46 8 70 20 86 50" stroke="#d8ff3e" stroke-width="4" stroke-linecap="round" fill="none"/>
  <path d="M486 250c34 6 54 18 74 38" stroke="#8ce7ff" stroke-width="4" stroke-linecap="round" fill="none"/>
  <rect x="82" y="92" width="136" height="58" rx="20" fill="#fffef9" stroke="#ff9d7d" stroke-width="2.5"/>
  <rect x="236" y="84" width="134" height="66" rx="20" fill="#f4ecdd" stroke="#d8ff3e" stroke-width="2.5"/>
  <rect x="162" y="212" width="138" height="74" rx="20" fill="#fffef9" stroke="#8ce7ff" stroke-width="2.5"/>
  <rect x="390" y="146" width="126" height="68" rx="20" fill="#f4ecdd" stroke="#ff9d7d" stroke-width="2.5"/>
  <rect x="464" y="258" width="126" height="74" rx="20" fill="#fffef9" stroke="#d8ff3e" stroke-width="2.5"/>
  <text x="102" y="124" fill="#4d5d69" font-family="Menlo, Consolas, monospace" font-size="16">PROMPT</text>
  <text x="258" y="122" fill="#4d5d69" font-family="Menlo, Consolas, monospace" font-size="16">MODEL</text>
  <text x="184" y="252" fill="#4d5d69" font-family="Menlo, Consolas, monospace" font-size="16">LIST</text>
  <text x="410" y="184" fill="#4d5d69" font-family="Menlo, Consolas, monospace" font-size="16">TOOLS</text>
</svg>
