<svg xmlns="http://www.w3.org/2000/svg" viewBox="0 0 1280 720" role="img" aria-labelledby="title desc">
  <title id="title">Nodes Nodes Nodes teaser poster</title>
  <desc id="desc">Warm light poster with a dark workflow canvas and product messaging for Nodes Nodes Nodes.</desc>
  <rect width="1280" height="720" fill="#fbf7ef"/>
  <circle cx="1124" cy="132" r="116" fill="#ffdccb"/>
  <circle cx="176" cy="602" r="112" fill="#dbf6ff"/>
  <rect x="58" y="58" width="1164" height="604" rx="40" fill="#fffef9" stroke="rgba(23,32,39,0.14)" stroke-width="3"/>
  <text x="120" y="132" fill="#4d5d69" font-family="Menlo, Consolas, monospace" font-size="24" letter-spacing="4">NODES NODES NODES</text>
  <text x="116" y="250" fill="#101417" font-family="Arial, Helvetica, sans-serif" font-size="92" font-weight="700">build, run, inspect,</text>
  <text x="116" y="344" fill="#101417" font-family="Arial, Helvetica, sans-serif" font-size="92" font-weight="700">review.</text>
  <text x="120" y="402" fill="#24303b" font-family="Arial, Helvetica, sans-serif" font-size="30">Local-first Mac app for text, data, images, video, files,</text>
  <text x="120" y="438" fill="#24303b" font-family="Arial, Helvetica, sans-serif" font-size="30">provider runs, local tools, and debuggable workflow loops.</text>
  <rect x="734" y="118" width="414" height="432" rx="30" fill="#101417"/>
  <g opacity=".15" stroke="#8ce7ff" stroke-width="1">
    <path d="M768 160h346"/>
    <path d="M768 206h346"/>
    <path d="M768 252h346"/>
    <path d="M768 298h346"/>
    <path d="M768 344h346"/>
    <path d="M768 390h346"/>
    <path d="M768 436h346"/>
  </g>
  <rect x="788" y="174" width="172" height="74" rx="22" fill="#fffef9" stroke="#ff9d7d" stroke-width="3"/>
  <rect x="992" y="156" width="116" height="72" rx="22" fill="#f4ecdd" stroke="#d8ff3e" stroke-width="3"/>
  <rect x="864" y="318" width="148" height="86" rx="22" fill="#fffef9" stroke="#8ce7ff" stroke-width="3"/>
  <rect x="1040" y="330" width="72" height="130" rx="22" fill="#f4ecdd" stroke="#ffd26c" stroke-width="3"/>
  <path d="M960 212h32M1048 190l36 18M922 318l-26-70" stroke="#fffef9" stroke-width="5" stroke-linecap="round" fill="none"/>
  <path d="M960 214c52 8 82 20 116 44" stroke="#ff4fc6" stroke-width="4" stroke-linecap="round" fill="none"/>
  <path d="M980 352c38 10 68 28 86 54" stroke="#d8ff3e" stroke-width="4" stroke-linecap="round" fill="none"/>
  <rect x="118" y="516" width="244" height="66" rx="24" fill="#fff3ed" stroke="#ff9d7d" stroke-width="2"/>
  <rect x="382" y="516" width="244" height="66" rx="24" fill="#eefbff" stroke="#8ce7ff" stroke-width="2"/>
  <text x="160" y="556" fill="#4d5d69" font-family="Menlo, Consolas, monospace" font-size="20" letter-spacing="3">BYO KEYS</text>
  <text x="420" y="556" fill="#4d5d69" font-family="Menlo, Consolas, monospace" font-size="20" letter-spacing="3">QUEUE + DEBUG</text>
</svg>
