<svg xmlns="http://www.w3.org/2000/svg" viewBox="0 0 1280 720" role="img" aria-labelledby="title desc">
  <title id="title">Nodes Nodes Nodes teaser illustration</title>
  <desc id="desc">Warm app illustration for the Nodes Nodes Nodes early macOS alpha, showing a simplified workflow window and queue-review flow.</desc>
  <rect width="1280" height="720" fill="#fbf7ef"/>
  <circle cx="1106" cy="126" r="108" fill="#ffdccb" opacity=".82"/>
  <circle cx="164" cy="608" r="104" fill="#dbf6ff" opacity=".88"/>
  <rect x="36" y="52" width="1208" height="616" rx="48" fill="#101417" stroke="rgba(23,32,39,0.1)" stroke-width="2"/>
  <rect x="36" y="52" width="1208" height="60" rx="48" fill="#171c20"/>
  <circle cx="76" cy="82" r="8" fill="#ff9d7d"/>
  <circle cx="100" cy="82" r="8" fill="#ffd26c"/>
  <circle cx="124" cy="82" r="8" fill="#5ec78d"/>
  <text x="520" y="88" fill="rgba(255,255,255,0.55)" font-family="Arial, Helvetica, sans-serif" font-size="18" font-weight="700">Nodes Nodes Nodes</text>

  <g opacity=".12" stroke="#8ce7ff" stroke-width="1">
    <path d="M96 170h1088"/>
    <path d="M96 246h1088"/>
    <path d="M96 322h1088"/>
    <path d="M96 398h1088"/>
    <path d="M96 474h1088"/>
    <path d="M96 550h1088"/>
  </g>

  <rect x="168" y="208" width="312" height="166" rx="30" fill="#fffef9" stroke="#ff9d7d" stroke-width="3"/>
  <text x="206" y="256" fill="#4d5d69" font-family="Menlo, Consolas, monospace" font-size="20" letter-spacing="2">PROJECT</text>
  <rect x="206" y="292" width="134" height="16" rx="8" fill="#24303b" opacity=".12"/>
  <rect x="206" y="320" width="196" height="16" rx="8" fill="#24303b" opacity=".12"/>
  <rect x="206" y="348" width="150" height="12" rx="6" fill="#8ce7ff" opacity=".82"/>
  <circle cx="426" cy="348" r="10" fill="#ff9d7d"/>

  <rect x="520" y="198" width="202" height="120" rx="24" fill="#f4ecdd" stroke="#d8ff3e" stroke-width="3"/>
  <text x="554" y="242" fill="#4d5d69" font-family="Menlo, Consolas, monospace" font-size="18" letter-spacing="2">LIST</text>
  <rect x="554" y="274" width="110" height="12" rx="6" fill="#24303b" opacity=".14"/>
  <rect x="554" y="296" width="86" height="12" rx="6" fill="#24303b" opacity=".14"/>
  <rect x="652" y="296" width="28" height="12" rx="6" fill="#ff4fc6" opacity=".72"/>

  <rect x="760" y="186" width="222" height="124" rx="26" fill="#f8f5de" stroke="#d8ff3e" stroke-width="3"/>
  <text x="798" y="232" fill="#4d5d69" font-family="Menlo, Consolas, monospace" font-size="20" letter-spacing="2">CANVAS</text>
  <circle cx="826" cy="262" r="13" fill="#ff9d7d"/>
  <circle cx="886" cy="236" r="13" fill="#8ce7ff"/>
  <circle cx="936" cy="272" r="13" fill="#ffd26c"/>
  <path d="M844 262h30M900 244l22 18" stroke="#101417" stroke-width="4" stroke-linecap="round" fill="none"/>

  <rect x="1014" y="244" width="118" height="112" rx="24" fill="#fffef9" stroke="#8ce7ff" stroke-width="3"/>
  <text x="1036" y="286" fill="#4d5d69" font-family="Menlo, Consolas, monospace" font-size="15" letter-spacing="2">OUTPUT</text>
  <rect x="1048" y="314" width="46" height="8" rx="4" fill="#24303b" opacity=".18"/>

  <rect x="206" y="430" width="212" height="122" rx="24" fill="#eefbff" stroke="#8ce7ff" stroke-width="3"/>
  <text x="242" y="470" fill="#4d5d69" font-family="Menlo, Consolas, monospace" font-size="18" letter-spacing="2">TOOLS</text>
  <rect x="242" y="498" width="100" height="14" rx="7" fill="#8ce7ff"/>
  <rect x="242" y="524" width="128" height="10" rx="5" fill="#24303b" opacity=".18"/>

  <rect x="470" y="424" width="272" height="140" rx="28" fill="#eefbff" stroke="#8ce7ff" stroke-width="3"/>
  <text x="508" y="468" fill="#4d5d69" font-family="Menlo, Consolas, monospace" font-size="20" letter-spacing="2">QUEUE</text>
  <rect x="508" y="496" width="142" height="16" rx="8" fill="#8ce7ff"/>
  <rect x="508" y="526" width="190" height="12" rx="6" fill="#24303b" opacity=".18"/>
  <rect x="508" y="550" width="114" height="12" rx="6" fill="#d8ff3e" opacity=".76"/>

  <rect x="798" y="390" width="196" height="198" rx="30" fill="#fff3ed" stroke="#ff9d7d" stroke-width="3"/>
  <text x="838" y="436" fill="#4d5d69" font-family="Menlo, Consolas, monospace" font-size="20" letter-spacing="2">REVIEW</text>
  <rect x="840" y="484" width="44" height="98" rx="16" fill="#ff9d7d" opacity=".62"/>
  <rect x="898" y="484" width="44" height="98" rx="16" fill="#fffef9"/>

  <path d="M480 290c20 0 28 -8 40 -22" stroke="#ff4fc6" stroke-width="4" stroke-linecap="round" fill="none"/>
  <path d="M722 274c14 0 24 -4 38 -12" stroke="#ff4fc6" stroke-width="4" stroke-linecap="round" fill="none"/>
  <path d="M982 260c14 8 22 18 32 30" stroke="#d8ff3e" stroke-width="4" stroke-linecap="round" fill="none"/>
  <path d="M418 494c20 6 34 6 52 0" stroke="#8ce7ff" stroke-width="4" stroke-linecap="round" stroke-dasharray="10 8" fill="none"/>
  <path d="M742 494c20 -8 38 -8 56 -4" stroke="#8ce7ff" stroke-width="4" stroke-linecap="round" stroke-dasharray="10 8" fill="none"/>
  <path d="M622 568c58 -4 118 -28 176 -74" stroke="#d8ff3e" stroke-width="5" stroke-linecap="round" fill="none"/>
</svg>
